<svg width="123" height="128" viewBox="0 0 123 128" fill="none" xmlns="http://www.w3.org/2000/svg">
<path d="M28.6832 50.2603C25.7329 58.9744 32.4659 64.0341 36.2012 65.4747C28.6237 62.9093 22.901 69.4178 20.9868 72.9928C23.5523 65.4153 17.0437 59.6925 13.4688 57.7783C22.3112 60.3497 27.2961 53.8377 28.6832 50.2603Z" stroke="black" stroke-width="2" stroke-linejoin="round"/>
<path d="M85.3657 101.124C82.4154 109.838 89.1484 114.898 92.8837 116.338C85.3062 113.773 79.5835 120.281 77.6693 123.856C80.2348 116.279 73.7262 110.556 70.1513 108.642C78.9937 111.213 83.9786 104.701 85.3657 101.124Z" stroke="black" stroke-width="2" stroke-linejoin="round"/>
<path d="M80.3898 16.0342C75.7185 29.8316 86.3791 37.8428 92.2934 40.1238C80.2957 36.0618 71.2346 46.367 68.2038 52.0273C72.2658 40.0296 61.9606 30.9686 56.3003 27.9378C70.3007 32.0092 78.1935 21.6985 80.3898 16.0342Z" stroke="black" stroke-width="3" stroke-linejoin="round"/>
</svg>
